<?xml version="1.0" encoding="utf-8"?>
<!-- Generator: Adobe Illustrator 19.0.0, SVG Export Plug-In . SVG Version: 6.00 Build 0)  -->
<svg version="1.1" id="Layer_1" xmlns="http://www.w3.org/2000/svg" xmlns:xlink="http://www.w3.org/1999/xlink" x="0px" y="0px"
	 viewBox="-49 141 512 512" style="enable-background:new -49 141 512 512;" xml:space="preserve">
<style type="text/css">
	.st0{fill:#EE3840;}
	.st1{fill:#FFE1D6;}
	.st2{fill:#11113F;}
</style>
<path class="st0" d="M396.8,342.4c0,152-171.6,292.8-171.6,292.8c-10,8.2-26.4,8.2-36.5,0c0,0-171.6-140.8-171.6-292.8
	c0-104.8,85-189.8,189.8-189.8S396.8,237.6,396.8,342.4z"/>
<path class="st1" d="M207,437.9c-52.7,0-95.5-42.8-95.5-95.5s42.8-95.5,95.5-95.5s95.5,42.8,95.5,95.5S259.7,437.9,207,437.9z"/>
<g>
	<path class="st2" d="M207,141C95.9,141,5.6,231.4,5.6,342.4c0,36.4,9.4,75,27.9,114.8c14.6,31.4,34.9,63.6,60.4,95.8
		c43.2,54.5,85.7,89.7,87.5,91.2c7.2,5.9,16.4,8.8,25.6,8.8s18.4-2.9,25.6-8.8c1.8-1.5,44.4-36.6,87.5-91.2
		c25.5-32.2,45.8-64.4,60.4-95.8c18.5-39.8,27.9-78.4,27.9-114.8C408.4,231.4,318.1,141,207,141z M302.2,538.3
		c-41.6,52.7-83.9,87.7-84.4,88c-5.8,4.8-16,4.8-21.8,0c-0.4-0.3-42.7-35.3-84.4-88c-37.9-47.9-83-120.8-83-195.8
		c0-98.3,80-178.3,178.3-178.3s178.3,80,178.3,178.3C385.3,417.5,340.1,490.3,302.2,538.3z"/>
	<path class="st2" d="M207,235.3c-59.1,0-107.1,48-107.1,107.1c0,59.1,48,107.1,107.1,107.1s107.1-48,107.1-107.1
		C314.1,283.4,266.1,235.3,207,235.3z M207,426.3c-46.3,0-83.9-37.6-83.9-83.9s37.6-83.9,83.9-83.9s83.9,37.6,83.9,83.9
		S253.3,426.3,207,426.3z"/>
</g>
</svg>
